<svg width="80" height="80" viewBox="0 0 80 80" fill="none" xmlns="http://www.w3.org/2000/svg">
<g clip-path="url(#clip0_39_491)">
<path d="M27.2375 80C21.8505 79.9998 16.5845 78.4021 12.1055 75.4091C7.62649 72.416 4.13559 68.162 2.07424 63.185C0.0128857 58.208 -0.526329 52.7315 0.524777 47.448C1.57588 42.1645 4.1701 37.3114 7.97938 33.5023C11.7887 29.6932 16.6419 27.0992 21.9255 26.0483C27.209 24.9974 32.6855 25.5369 37.6624 27.5985C42.6393 29.6601 46.8932 33.1512 49.886 37.6303C52.8788 42.1095 54.4763 47.3755 54.4763 52.7625C54.468 59.984 51.5955 66.9074 46.489 72.0137C41.3825 77.1199 34.459 79.9921 27.2375 80ZM27.2375 28.955C22.5285 28.955 17.9253 30.3514 14.01 32.9676C10.0946 35.5838 7.04297 39.3023 5.24098 43.6529C3.43899 48.0034 2.96757 52.7906 3.88633 57.4091C4.8051 62.0276 7.07279 66.2699 10.4026 69.5996C13.7325 72.9292 17.9749 75.1967 22.5934 76.1152C27.212 77.0337 31.9991 76.5621 36.3496 74.7598C40.7001 72.9576 44.4184 69.9058 47.0344 65.9903C49.6504 62.0748 51.0465 57.4715 51.0463 52.7625C51.039 46.4504 48.5282 40.3989 44.0647 35.9357C39.6013 31.4725 33.5496 28.962 27.2375 28.955Z" fill="white"/>
<path d="M57.8663 44.2687C57.4114 44.2687 56.9752 44.088 56.6536 43.7664C56.3319 43.4448 56.1513 43.0086 56.1513 42.5537C56.1513 42.0989 56.3319 41.6627 56.6536 41.341C56.9752 41.0194 57.4114 40.8387 57.8663 40.8387C61.5656 40.8387 65.1818 39.7417 68.2576 37.6865C71.3335 35.6312 73.7308 32.71 75.1464 29.2923C76.562 25.8746 76.9323 22.1138 76.2105 18.4856C75.4887 14.8574 73.7073 11.5247 71.0914 8.90899C68.4755 6.29327 65.1427 4.51201 61.5144 3.79047C57.8862 3.06892 54.1254 3.43949 50.7078 4.85533C47.2901 6.27116 44.3691 8.66866 42.3141 11.7446C40.259 14.8206 39.1623 18.4369 39.1625 22.1362C39.1625 22.5911 38.9818 23.0273 38.6602 23.3489C38.3386 23.6705 37.9024 23.8512 37.4475 23.8512C36.9927 23.8512 36.5565 23.6705 36.2348 23.3489C35.9132 23.0273 35.7325 22.5911 35.7325 22.1362C35.7323 17.7585 37.0302 13.4791 39.4621 9.83904C41.8941 6.199 45.3508 3.36186 49.3952 1.68642C53.4396 0.0109781 57.89 -0.427522 62.1836 0.426372C66.4772 1.28027 70.4212 3.3882 73.5167 6.48361C76.6123 9.57902 78.7205 13.5229 79.5746 17.8164C80.4288 22.11 79.9905 26.5604 78.3153 30.6049C76.6401 34.6494 73.8031 38.1063 70.1632 40.5384C66.5233 42.9706 62.244 44.2687 57.8663 44.2687Z" fill="white"/>
<path d="M29.79 69.7913C29.3354 69.7906 28.8995 69.6097 28.578 69.2882C28.2566 68.9667 28.0757 68.5309 28.075 68.0763V65.5238C28.075 65.3016 27.9868 65.0886 27.8297 64.9316C27.6726 64.7745 27.4596 64.6863 27.2375 64.6863H24.6863C24.5762 64.6861 24.4671 64.7076 24.3654 64.7497C24.2636 64.7917 24.1711 64.8533 24.0932 64.9311C24.0153 65.0089 23.9535 65.1013 23.9114 65.203C23.8692 65.3047 23.8475 65.4137 23.8475 65.5238V68.0763C23.8537 68.3053 23.8139 68.5332 23.7305 68.7466C23.6472 68.9601 23.5219 69.1546 23.3621 69.3188C23.2023 69.4829 23.0112 69.6134 22.8001 69.7025C22.589 69.7917 22.3622 69.8376 22.1331 69.8376C21.904 69.8376 21.6772 69.7917 21.4661 69.7025C21.2551 69.6134 21.064 69.4829 20.9042 69.3188C20.7444 69.1546 20.6191 68.9601 20.5357 68.7466C20.4523 68.5332 20.4126 68.3053 20.4188 68.0763V65.5238C20.4188 65.3016 20.3305 65.0886 20.1735 64.9316C20.0164 64.7745 19.8034 64.6863 19.5813 64.6863H17.0288C16.7997 64.6924 16.5718 64.6527 16.3584 64.5693C16.145 64.4859 15.9504 64.3606 15.7862 64.2008C15.6221 64.041 15.4916 63.85 15.4025 63.6389C15.3134 63.4278 15.2675 63.201 15.2675 62.9719C15.2675 62.7428 15.3134 62.516 15.4025 62.3049C15.4916 62.0938 15.6221 61.9027 15.7862 61.7429C15.9504 61.5831 16.145 61.4578 16.3584 61.3745C16.5718 61.2911 16.7997 61.2513 17.0288 61.2575H19.5813C19.8034 61.2575 20.0164 61.1693 20.1735 61.0122C20.3305 60.8552 20.4188 60.6421 20.4188 60.42V45.1063C20.4188 44.8841 20.3305 44.6711 20.1735 44.5141C20.0164 44.357 19.8034 44.2688 19.5813 44.2688H17.0288C16.5739 44.2688 16.1377 44.0881 15.8161 43.7665C15.4944 43.4448 15.3138 43.0086 15.3138 42.5538C15.3138 42.0989 15.4944 41.6627 15.8161 41.3411C16.1377 41.0195 16.5739 40.8388 17.0288 40.8388H19.5813C19.6912 40.8388 19.8001 40.8171 19.9018 40.775C20.0034 40.7329 20.0957 40.6712 20.1735 40.5935C20.2512 40.5157 20.3129 40.4234 20.355 40.3218C20.3971 40.2202 20.4188 40.1112 20.4188 40.0013V37.4488C20.4308 37.0021 20.6167 36.5778 20.9369 36.2661C21.2571 35.9545 21.6863 35.7801 22.1331 35.7801C22.58 35.7801 23.0091 35.9545 23.3293 36.2661C23.6495 36.5778 23.8354 37.0021 23.8475 37.4488V40C23.8475 40.1101 23.8692 40.2191 23.9114 40.3208C23.9535 40.4225 24.0153 40.5149 24.0932 40.5927C24.1711 40.6704 24.2636 40.7321 24.3654 40.7741C24.4671 40.8161 24.5762 40.8377 24.6863 40.8375H27.2375C27.4596 40.8375 27.6726 40.7493 27.8297 40.5922C27.9868 40.4352 28.075 40.2221 28.075 40V37.4488C28.075 36.9939 28.2557 36.5577 28.5773 36.2361C28.8989 35.9145 29.3352 35.7338 29.79 35.7338C30.2449 35.7338 30.6811 35.9145 31.0027 36.2361C31.3243 36.5577 31.505 36.9939 31.505 37.4488V40.4725C31.505 40.6453 31.5585 40.8139 31.6581 40.9551C31.7577 41.0963 31.8985 41.2032 32.0613 41.2613C32.9994 41.5864 33.8542 42.1148 34.5645 42.8085C35.2748 43.5023 35.8231 44.3444 36.1702 45.2747C36.5174 46.2049 36.6548 47.2003 36.5726 48.1898C36.4905 49.1794 36.1908 50.1385 35.695 50.9988C35.5868 51.1859 35.5554 51.4077 35.6074 51.6175C35.6594 51.8273 35.7907 52.0088 35.9738 52.1238C37.2194 52.9128 38.1754 54.0847 38.6982 55.4634C39.2209 56.8421 39.2823 58.3533 38.873 59.7698C38.4637 61.1864 37.6058 62.4319 36.4283 63.3193C35.2507 64.2068 33.817 64.6882 32.3425 64.6913C32.1204 64.6913 31.9074 64.7795 31.7503 64.9366C31.5932 65.0936 31.505 65.3066 31.505 65.5288V68.0813C31.503 68.535 31.3215 68.9696 31.0002 69.29C30.6789 69.6104 30.2438 69.7906 29.79 69.7913ZM24.6863 54.4775C24.5762 54.4774 24.4671 54.4989 24.3654 54.5409C24.2636 54.5829 24.1711 54.6446 24.0932 54.7224C24.0153 54.8002 23.9535 54.8925 23.9114 54.9942C23.8692 55.0959 23.8475 55.2049 23.8475 55.315V60.42C23.8475 60.5301 23.8692 60.6391 23.9114 60.7408C23.9535 60.8425 24.0153 60.9349 24.0932 61.0127C24.1711 61.0904 24.2636 61.1521 24.3654 61.1941C24.4671 61.2361 24.5762 61.2577 24.6863 61.2575H32.3425C36.8288 61.2575 36.8238 54.4775 32.3425 54.4775H24.6863ZM24.6863 44.2688C24.5762 44.2686 24.4671 44.2901 24.3654 44.3322C24.2636 44.3742 24.1711 44.4358 24.0932 44.5136C24.0153 44.5914 23.9535 44.6838 23.9114 44.7855C23.8692 44.8872 23.8475 44.9962 23.8475 45.1063V50.21C23.8475 50.3201 23.8692 50.4291 23.9114 50.5308C23.9535 50.6325 24.0153 50.7249 24.0932 50.8027C24.1711 50.8804 24.2636 50.9421 24.3654 50.9841C24.4671 51.0261 24.5762 51.0477 24.6863 51.0475H29.79C34.2775 51.0475 34.2713 44.2688 29.79 44.2688H24.6863Z" fill="white"/>
<path d="M56.1513 34.8975C56.1225 34.7725 56.2925 33.9588 55.5625 33.7313C54.5701 33.4314 53.6584 32.911 52.8956 32.209C52.1328 31.507 51.5386 30.6416 51.1575 29.6775C50.997 29.2522 51.0121 28.7805 51.1994 28.3663C51.3867 27.9521 51.7309 27.6292 52.1563 27.4688C52.5816 27.3083 53.0533 27.3234 53.4675 27.5107C53.8817 27.698 54.2045 28.0422 54.365 28.4675C54.6629 29.1214 55.1503 29.6707 55.7642 30.0443C56.378 30.4178 57.0898 30.5984 57.8075 30.5625C61.0188 30.5625 63.88 26.3438 57.2375 23.7313C48.6625 20.3563 49.8625 12.6738 55.5938 10.6475C56.335 10.3838 56.1163 9.55878 56.1513 9.37503C56.1513 8.92019 56.3319 8.48397 56.6536 8.16235C56.9752 7.84072 57.4114 7.66003 57.8663 7.66003C58.3211 7.66003 58.7573 7.84072 59.0789 8.16235C59.4006 8.48397 59.5813 8.92019 59.5813 9.37503C59.61 9.50003 59.44 10.3138 60.17 10.5413C61.1622 10.841 62.0739 11.3612 62.8367 12.063C63.5995 12.7648 64.1937 13.6299 64.575 14.5938C64.7358 15.0193 64.721 15.4912 64.5338 15.9058C64.3466 16.3204 64.0024 16.6436 63.5769 16.8044C63.1514 16.9652 62.6794 16.9504 62.2648 16.7632C61.8503 16.576 61.527 16.2318 61.3663 15.8063C60.1888 12.6813 54.4763 13.0863 54.4763 16.8275C54.4763 20.8275 64.685 20.6525 64.685 27.445C64.6736 28.8224 64.2281 30.1611 63.4119 31.2707C62.5956 32.3802 61.4503 33.2041 60.1388 33.625C59.3963 33.8875 59.6163 34.7138 59.5813 34.8975C59.5813 35.3524 59.4006 35.7886 59.0789 36.1102C58.7573 36.4318 58.3211 36.6125 57.8663 36.6125C57.4114 36.6125 56.9752 36.4318 56.6536 36.1102C56.3319 35.7886 56.1513 35.3524 56.1513 34.8975Z" fill="white"/>
<path d="M52.6375 75.2988C66.4575 74.2988 77.395 61.0975 76.52 46.485C76.5054 46.0386 76.6655 45.604 76.9664 45.2738C77.2672 44.9436 77.685 44.7438 78.1309 44.717C78.5768 44.6901 79.0156 44.8383 79.3539 45.1299C79.6923 45.4216 79.9034 45.8338 79.9425 46.2788C80.9425 63.0075 68.8088 77.56 52.8863 78.72C52.4326 78.753 51.9844 78.6044 51.6403 78.3069C51.2961 78.0095 51.0843 77.5875 51.0513 77.1338C51.0183 76.6801 51.1669 76.2319 51.4644 75.8878C51.7618 75.5436 52.1838 75.3318 52.6375 75.2988Z" fill="white"/>
<path d="M1.285 27.0649C2.04664 19.6348 5.53023 12.7491 11.065 7.73369C14.1091 4.94743 17.7045 2.8317 21.6184 1.52356C25.5323 0.215411 29.6773 -0.255972 33.785 0.139942C34.2309 0.191636 34.6387 0.416076 34.921 0.765088C35.2032 1.1141 35.3374 1.55986 35.2947 2.00669C35.252 2.45352 35.0358 2.8658 34.6926 3.15503C34.3493 3.44426 33.9063 3.58739 33.4588 3.55369C26.4816 2.91033 19.5342 5.06171 14.1417 9.53557C8.74913 14.0094 5.3521 20.4402 4.69625 27.4162C4.64118 27.8616 4.41372 28.2677 4.06268 28.5473C3.71163 28.8269 3.26497 28.9577 2.81855 28.9117C2.37212 28.8658 1.9615 28.6466 1.6748 28.3014C1.38809 27.9561 1.24815 27.5122 1.285 27.0649Z" fill="white"/>
</g>
<defs>
<clipPath id="clip0_39_491">
<rect width="80" height="80" fill="white"/>
</clipPath>
</defs>
</svg>
