<svg width="80" height="80" viewBox="0 0 80 80" fill="none" xmlns="http://www.w3.org/2000/svg">
<g clip-path="url(#clip0_79_814)">
<path d="M70.3624 32.5C70.0404 32.5637 69.7563 32.7514 69.5716 33.0227C69.3868 33.294 69.3162 33.6271 69.3749 33.95C69.7119 35.5306 69.9209 37.1358 69.9999 38.75H56.8061C56.7687 37.0063 56.6687 35.2688 56.4999 33.575C56.4831 33.4109 56.4341 33.2516 56.3557 33.1064C56.2774 32.9612 56.1712 32.8328 56.0432 32.7287C55.9152 32.6245 55.768 32.5465 55.6099 32.4993C55.4518 32.452 55.2859 32.4363 55.1218 32.4532C54.9576 32.47 54.7984 32.519 54.6532 32.5973C54.508 32.6757 54.3796 32.7819 54.2754 32.9099C54.1712 33.0378 54.0933 33.1851 54.046 33.3432C53.9987 33.5013 53.9831 33.6671 53.9999 33.8313C54.1624 35.4438 54.2562 37.0938 54.2937 38.75H41.2499V29.2688C41.6874 29.2688 42.1249 29.2438 42.5624 29.1938C42.8939 29.1673 43.2013 29.0101 43.417 28.757C43.6327 28.5038 43.7389 28.1753 43.7124 27.8438C43.6859 27.5123 43.5287 27.2049 43.2756 26.9892C43.0224 26.7735 42.6939 26.6673 42.3624 26.6938C41.9936 26.725 41.6186 26.7375 41.2499 26.7563V10.0313C42.8522 10.0968 44.4467 10.2891 46.0186 10.6063C46.1795 10.6391 46.3453 10.6399 46.5065 10.6087C46.6677 10.5775 46.8211 10.5148 46.9581 10.4243C47.095 10.3337 47.2128 10.2171 47.3047 10.081C47.3966 9.94498 47.4608 9.79215 47.4936 9.63128C47.5265 9.47041 47.5273 9.30465 47.4961 9.14346C47.4648 8.98228 47.4022 8.82882 47.3116 8.69185C47.2211 8.55488 47.1045 8.43709 46.9684 8.3452C46.8323 8.2533 46.6795 8.18911 46.5186 8.15628C41.2576 7.07558 35.8106 7.3156 30.665 8.85487C25.5194 10.3941 20.8354 13.1847 17.032 16.9769C13.2286 20.7692 10.4244 25.4449 8.87 30.586C7.31564 35.7271 7.05964 41.1733 8.1249 46.4375C8.18205 46.7253 8.33859 46.9838 8.56711 47.1677C8.79564 47.3517 9.08158 47.4494 9.3749 47.4438C9.45799 47.4527 9.5418 47.4527 9.6249 47.4438C9.78578 47.411 9.93863 47.3468 10.0747 47.2549C10.2108 47.163 10.3274 47.0452 10.418 46.9083C10.5085 46.7713 10.5712 46.6178 10.6024 46.4566C10.6336 46.2954 10.6328 46.1297 10.5999 45.9688C10.2865 44.4133 10.0963 42.8355 10.0311 41.25H23.1936C23.1936 42.9625 23.3249 44.6688 23.4936 46.3375C23.5247 46.6469 23.67 46.9336 23.9012 47.1417C24.1323 47.3497 24.4327 47.4641 24.7436 47.4625H24.8686C25.032 47.4461 25.1905 47.3977 25.3351 47.32C25.4797 47.2424 25.6076 47.137 25.7115 47.0099C25.8154 46.8828 25.8932 46.7364 25.9406 46.5793C25.9879 46.4221 26.0038 46.2571 25.9874 46.0938C25.8249 44.5063 25.7311 42.8875 25.6999 41.2563H38.7499V50.7375C38.3124 50.7375 37.8749 50.7375 37.4374 50.8063C37.1059 50.832 36.7981 50.9883 36.5819 51.2409C36.3656 51.4935 36.2586 51.8216 36.2843 52.1532C36.31 52.4847 36.4663 52.7924 36.7189 53.0087C36.9715 53.2249 37.2996 53.332 37.6311 53.3063C38.0061 53.3063 38.3811 53.2625 38.7499 53.2438V70C37.1519 69.9369 35.5615 69.7468 33.9936 69.4313C33.8328 69.3984 33.667 69.3976 33.5058 69.4289C33.3446 69.4601 33.1912 69.5228 33.0542 69.6133C32.9173 69.7038 32.7995 69.8205 32.7076 69.9565C32.6157 70.0926 32.5515 70.2454 32.5186 70.4063C32.4858 70.5672 32.485 70.7329 32.5162 70.8941C32.5475 71.0553 32.6101 71.2087 32.7007 71.3457C32.7912 71.4827 32.9078 71.6005 33.0439 71.6924C33.18 71.7843 33.3328 71.8484 33.4936 71.8813C35.6364 72.3035 37.816 72.5108 39.9999 72.5C48.6194 72.5 56.8859 69.0759 62.9809 62.981C69.0758 56.8861 72.4999 48.6196 72.4999 40C72.4993 37.8 72.2773 35.6056 71.8374 33.45C71.7655 33.1297 71.5706 32.8505 71.2946 32.6728C71.0186 32.495 70.6838 32.433 70.3624 32.5ZM62.5312 59.8C60.327 57.6765 57.8335 55.8753 55.1249 54.45C56.1781 50.1269 56.7421 45.6991 56.8061 41.25H69.9999C69.7237 48.1096 67.0852 54.6629 62.5312 59.8ZM38.7499 10.125V26.7625C35.0065 26.6165 31.3239 25.7685 27.8936 24.2625C30.2374 16.475 34.2311 10.9938 38.7499 10.125ZM25.5624 23.0875C23.2436 21.8103 21.1024 20.2344 19.1936 18.4C22.8617 14.8487 27.3815 12.3004 32.3186 11C29.4936 13.75 27.1624 17.9188 25.5624 23.0875ZM17.4999 20.2063C19.6936 22.3302 22.1765 24.1335 24.8749 25.5625C23.8184 29.8808 23.2544 34.3048 23.1936 38.75H10.0311C10.3031 31.8914 12.9423 25.3388 17.4999 20.2063ZM25.6936 38.75C25.7665 34.6812 26.282 30.6323 27.2311 26.675C30.8797 28.2361 34.7842 29.1132 38.7499 29.2625V38.75H25.6936ZM54.3061 41.25C54.2307 45.3166 53.7152 49.3631 52.7687 53.3188C49.1192 51.7603 45.2152 50.8833 41.2499 50.7313V41.25H54.3061ZM41.2499 69.875V53.2375C44.9933 53.3835 48.6759 54.2316 52.1062 55.7375C49.7562 63.525 45.7686 69.0063 41.2499 69.875ZM54.4374 56.9125C56.7558 58.1899 58.8951 59.7682 60.7999 61.6063C57.1313 65.1556 52.6116 67.7018 47.6749 69C50.5061 66.25 52.8374 62.0813 54.4374 56.9125Z" fill="white"/>
<path d="M77.2938 -4.99049e-05H52.5C52.1667 -0.0190907 51.8332 0.0325319 51.5212 0.151433C51.2093 0.270334 50.926 0.453829 50.6899 0.689885C50.4539 0.925941 50.2704 1.20923 50.1515 1.52117C50.0326 1.83311 49.981 2.16666 50 2.49995V22.4999C49.9798 23.5619 49.6803 24.5998 49.1318 25.5093C48.5832 26.4188 47.8049 27.1679 46.875 27.6812C46.6433 27.8216 46.4635 28.0335 46.3627 28.285C46.2619 28.5365 46.2455 28.8139 46.316 29.0755C46.3865 29.3371 46.5401 29.5687 46.7537 29.7354C46.9672 29.9021 47.2291 29.995 47.5 29.9999H77.2938C77.65 29.9991 78.0025 29.9282 78.3313 29.7911C78.6601 29.654 78.9587 29.4535 79.21 29.2011C79.4613 28.9486 79.6604 28.6491 79.7959 28.3197C79.9315 27.9903 80.0008 27.6374 80 27.2812V2.7187C80.0008 2.36249 79.9315 2.0096 79.7959 1.68019C79.6604 1.35078 79.4613 1.0513 79.21 0.79884C78.9587 0.546381 78.6601 0.345891 78.3313 0.208817C78.0025 0.0717429 77.65 0.000769912 77.2938 -4.99049e-05ZM77.5 27.2812C77.5008 27.3091 77.4962 27.3369 77.4863 27.363C77.4763 27.3891 77.4614 27.413 77.4422 27.4333C77.4231 27.4536 77.4001 27.47 77.3746 27.4814C77.3491 27.4928 77.3217 27.4991 77.2938 27.4999H50.7813C51.8956 26.0715 52.5006 24.3116 52.5 22.4999V2.49995H77.2938C77.3217 2.50076 77.3491 2.50706 77.3746 2.51849C77.4001 2.52993 77.4231 2.54627 77.4422 2.56658C77.4614 2.5869 77.4763 2.61079 77.4863 2.63689C77.4962 2.66299 77.5008 2.69079 77.5 2.7187V27.2812Z" fill="white"/>
<path d="M33.7063 50.9125C33.6325 50.6495 33.4746 50.4179 33.2568 50.2531C33.039 50.0883 32.7732 49.9994 32.5 50H2.70626C2.35005 50.0008 1.99748 50.0718 1.6687 50.2089C1.33992 50.3459 1.04136 50.5464 0.790058 50.7989C0.53876 51.0514 0.339648 51.3508 0.20409 51.6802C0.068533 52.0097 -0.00081449 52.3625 7.21768e-06 52.7188V77.2813C-0.00081449 77.6375 0.068533 77.9903 0.20409 78.3198C0.339648 78.6492 0.53876 78.9487 0.790058 79.2011C1.04136 79.4536 1.33992 79.6541 1.6687 79.7911C1.99748 79.9282 2.35005 79.9992 2.70626 80H27.5C27.8333 80.019 28.1668 79.9674 28.4788 79.8485C28.7907 79.7296 29.074 79.5461 29.3101 79.3101C29.5461 79.074 29.7296 78.7907 29.8485 78.4788C29.9674 78.1668 30.019 77.8333 30 77.5V57.5C30.0202 56.4381 30.3197 55.4002 30.8683 54.4907C31.4168 53.5811 32.1952 52.8321 33.125 52.3188C33.3631 52.181 33.5492 51.9685 33.6543 51.7143C33.7593 51.46 33.7776 51.1782 33.7063 50.9125ZM27.5 57.5V77.5H2.70626C2.67835 77.4992 2.65087 77.4929 2.6254 77.4815C2.59992 77.47 2.57695 77.4537 2.5578 77.4334C2.53865 77.4131 2.52368 77.3892 2.51377 77.3631C2.50385 77.337 2.49917 77.3092 2.50001 77.2813V52.7188C2.49917 52.6908 2.50385 52.663 2.51377 52.6369C2.52368 52.6108 2.53865 52.587 2.5578 52.5666C2.57695 52.5463 2.59992 52.53 2.6254 52.5185C2.65087 52.5071 2.67835 52.5008 2.70626 52.5H29.2188C28.1044 53.9284 27.4995 55.6883 27.5 57.5Z" fill="white"/>
<path d="M8.75 62.5H21.25C21.5815 62.5 21.8995 62.3683 22.1339 62.1339C22.3683 61.8995 22.5 61.5815 22.5 61.25C22.5 60.9185 22.3683 60.6005 22.1339 60.3661C21.8995 60.1317 21.5815 60 21.25 60H8.75C8.41848 60 8.10054 60.1317 7.86612 60.3661C7.6317 60.6005 7.5 60.9185 7.5 61.25C7.5 61.5815 7.6317 61.8995 7.86612 62.1339C8.10054 62.3683 8.41848 62.5 8.75 62.5Z" fill="white"/>
<path d="M8.75 70H16.25C16.5815 70 16.8995 69.8683 17.1339 69.6339C17.3683 69.3995 17.5 69.0815 17.5 68.75C17.5 68.4185 17.3683 68.1005 17.1339 67.8661C16.8995 67.6317 16.5815 67.5 16.25 67.5H8.75C8.41848 67.5 8.10054 67.6317 7.86612 67.8661C7.6317 68.1005 7.5 68.4185 7.5 68.75C7.5 69.0815 7.6317 69.3995 7.86612 69.6339C8.10054 69.8683 8.41848 70 8.75 70Z" fill="white"/>
<path d="M71.25 10H58.75C58.4185 10 58.1005 10.1317 57.8661 10.3661C57.6317 10.6005 57.5 10.9185 57.5 11.25C57.5 11.5815 57.6317 11.8995 57.8661 12.1339C58.1005 12.3683 58.4185 12.5 58.75 12.5H71.25C71.5815 12.5 71.8995 12.3683 72.1339 12.1339C72.3683 11.8995 72.5 11.5815 72.5 11.25C72.5 10.9185 72.3683 10.6005 72.1339 10.3661C71.8995 10.1317 71.5815 10 71.25 10Z" fill="white"/>
<path d="M68.75 17.5H58.75C58.4185 17.5 58.1005 17.6317 57.8661 17.8661C57.6317 18.1005 57.5 18.4185 57.5 18.75C57.5 19.0815 57.6317 19.3995 57.8661 19.6339C58.1005 19.8683 58.4185 20 58.75 20H68.75C69.0815 20 69.3995 19.8683 69.6339 19.6339C69.8683 19.3995 70 19.0815 70 18.75C70 18.4185 69.8683 18.1005 69.6339 17.8661C69.3995 17.6317 69.0815 17.5 68.75 17.5Z" fill="white"/>
</g>
<defs>
<clipPath id="clip0_79_814">
<rect width="80" height="80" fill="white"/>
</clipPath>
</defs>
</svg>
