<svg width="80" height="80" viewBox="0 0 80 80" fill="none" xmlns="http://www.w3.org/2000/svg">
<g clip-path="url(#clip0_39_451)">
<path d="M7.03333 15.2947C7.88537 16.0038 9.05674 16.1906 10.0871 15.7817C11.1174 15.3729 11.842 14.4337 11.976 13.3334H48C50.2091 13.3334 52 11.5425 52 9.33339V6.66672C52 4.45758 50.2091 2.66672 48 2.66672H11.976C11.8421 1.56665 11.1179 0.627618 10.088 0.218538C9.05803 -0.190543 7.8869 -0.00431816 7.03466 0.704052L1.07733 5.66539C0.390943 6.24983 -0.00352212 7.10667 -0.0012106 8.00817C0.00110092 8.90966 0.399955 9.76447 1.08933 10.3454L7.03333 15.2947ZM2.8 7.70405L8.74266 2.75205C8.80452 2.69827 8.88338 2.66805 8.96533 2.66672C9.0201 2.66798 9.07405 2.68022 9.124 2.70272C9.25489 2.75751 9.33824 2.88757 9.33333 3.02939V4.00005C9.33333 4.73643 9.93029 5.33339 10.6667 5.33339H48C48.7364 5.33339 49.3333 5.93034 49.3333 6.66672V9.33339C49.3333 10.0698 48.7364 10.6667 48 10.6667H10.6667C9.93029 10.6667 9.33333 11.2637 9.33333 12.0001V12.9707C9.33868 13.1119 9.25651 13.2418 9.12666 13.2974C9.00045 13.3585 8.84995 13.3386 8.744 13.2467L2.80933 8.30539C2.71913 8.22959 2.66693 8.11788 2.66666 8.00005C2.66589 7.88668 2.71457 7.7786 2.8 7.70405Z" fill="white"/>
<path d="M72.9667 14.0387C72.1146 13.3296 70.9433 13.1428 69.9129 13.5517C68.8826 13.9605 68.1581 14.8997 68.024 16H32C29.7909 16 28 17.7909 28 20V22.6667C28 24.8758 29.7909 26.6667 32 26.6667H68.024C68.1537 27.7692 68.8776 28.7118 69.9094 29.1217C70.9411 29.5315 72.1145 29.3424 72.9653 28.6293L78.9227 23.668C79.6091 23.0836 80.0035 22.2267 80.0012 21.3252C79.9989 20.4237 79.6 19.5689 78.9107 18.988L72.9667 14.0387ZM77.2 21.6293L71.2547 26.5813C71.1475 26.6705 70.9984 26.6894 70.8723 26.63C70.7463 26.5705 70.6661 26.4434 70.6667 26.304V25.3333C70.6667 24.597 70.0697 24 69.3333 24H32C31.2636 24 30.6667 23.4031 30.6667 22.6667V20C30.6667 19.2636 31.2636 18.6667 32 18.6667H69.3333C70.0697 18.6667 70.6667 18.0697 70.6667 17.3333V16.3627C70.6613 16.2215 70.7435 16.0916 70.8733 16.036C70.9993 15.9734 71.1507 15.9934 71.256 16.0867L77.188 21.028C77.2792 21.1033 77.3324 21.2151 77.3333 21.3333C77.3341 21.4467 77.2854 21.5548 77.2 21.6293Z" fill="white"/>
<path d="M77.3333 36L70.38 36.0107C68.7341 36.0058 67.2826 37.088 66.8173 38.6667H62.5867C61.97 38.669 61.3614 38.5255 60.8107 38.2481L53.6413 34.6561C50.0831 32.896 45.9076 32.896 42.3493 34.6561L41.9987 34.8321L41.6413 34.6507C38.0827 32.8921 33.9079 32.8921 30.3493 34.6507L23.1827 38.2414C22.6347 38.5206 22.0284 38.6664 21.4133 38.6667H13.1827C12.7177 37.0889 11.2676 36.007 9.62267 36.0107L2.66667 36C1.19391 36 0 37.194 0 38.6667V60C0 61.4728 1.19391 62.6667 2.66667 62.6667L9.35867 62.6774L13.3587 64.344C13.297 66.0909 14.183 67.735 15.676 68.6441C16.4097 69.0837 17.2487 69.3164 18.104 69.3174C18.5089 69.3166 18.9121 69.2647 19.304 69.1627C19.3387 69.1534 19.3707 69.1361 19.4053 69.1254C19.6925 70.4055 20.4895 71.5131 21.612 72.1921C22.3458 72.6294 23.1844 72.8598 24.0387 72.8587C24.4436 72.858 24.8468 72.806 25.2387 72.704C25.2733 72.6947 25.304 72.6774 25.3387 72.668C25.6283 73.9496 26.4288 75.0574 27.5547 75.7347C28.6414 76.3891 29.9466 76.5762 31.1733 76.2534C31.204 76.2454 31.232 76.2294 31.2627 76.2214C31.5442 77.483 32.3294 78.5746 33.436 79.2427L33.4547 79.2534L33.492 79.2774C34.2231 79.7173 35.0601 79.95 35.9133 79.9507C36.3182 79.9508 36.7215 79.8993 37.1133 79.7974C37.9917 79.5698 38.7854 79.0928 39.3987 78.4241L40.176 79.0281C40.9932 79.6592 41.9967 80.0016 43.0293 80.0014C43.2439 80.0012 43.4581 79.9865 43.6707 79.9574C44.8772 79.7986 45.9729 79.1717 46.7213 78.2121C46.7427 78.1881 46.764 78.1614 46.7827 78.1361C47.5531 77.1164 47.88 75.8291 47.6893 74.5654L47.748 74.5587C48.9858 74.4017 50.1076 73.7511 50.8587 72.7547C51.4934 71.9317 51.8384 70.922 51.84 69.8827C52.1426 69.9009 52.4462 69.8897 52.7467 69.8494C53.9821 69.6916 55.1014 69.0415 55.8507 68.0467C56.4923 67.2202 56.8403 66.2037 56.84 65.1574C56.8409 64.6245 56.7535 64.0951 56.5813 63.5907C57.2373 63.4212 57.8463 63.1053 58.3627 62.6667L70.3627 62.6774H70.3707L77.3333 62.6667C78.8061 62.6667 80 61.4728 80 60V38.6667C80 37.194 78.8061 36 77.3333 36ZM52.4573 37.0454L59.6107 40.6294C60.5341 41.0932 61.5533 41.3344 62.5867 41.3334H66.808L68.884 60.008L59.896 60C59.9909 59.5691 60.0259 59.1272 60 58.6867C59.8478 57.0997 59.0225 55.654 57.7333 54.716L44.2667 45.2974C42.5641 44.0779 40.2082 44.3837 38.8733 45.9974L32.6813 53.4027C31.5323 54.7669 29.5048 54.9651 28.1133 53.8494C27.7974 53.5981 27.6141 53.2158 27.616 52.8121C27.6159 52.5353 27.7042 52.2658 27.868 52.0427L34.016 43.2574C35.0344 41.8031 36.3991 40.6255 37.9867 39.8307L43.5373 37.0494C46.3475 35.6598 49.6446 35.6583 52.456 37.0454H52.4573ZM2.66667 38.6667L9.62267 38.6774C9.92385 38.6774 10.2108 38.8057 10.4116 39.0302C10.6124 39.2547 10.708 39.5541 10.6747 39.8534L8.43333 60.0094L2.66667 60V38.6667ZM17.0453 66.356C16.0312 65.7357 15.6969 64.4198 16.292 63.3907L16.8813 62.384C17.161 61.8955 17.6258 61.5403 18.1707 61.3987C18.3424 61.3553 18.5189 61.3334 18.696 61.3334C19.0719 61.3344 19.4405 61.4372 19.7627 61.6307C20.4159 62.0243 20.8113 62.7348 20.8013 63.4974C20.803 63.8808 20.7036 64.2579 20.5133 64.5907L19.924 65.596C19.6443 66.0851 19.1796 66.4411 18.6347 66.584C18.0958 66.7247 17.5229 66.6426 17.0453 66.356ZM22.9813 69.9041C21.9677 69.2833 21.634 67.9675 22.2293 66.9387L22.82 65.9294C23.1 65.4422 23.5642 65.0881 24.108 64.9467C24.2796 64.9023 24.4561 64.8795 24.6333 64.8787C25.0092 64.8797 25.3778 64.9824 25.7 65.176C26.6929 65.7908 27.0299 67.0757 26.4667 68.0987V68.1067L25.8627 69.1467L25.8547 69.1627C25.5744 69.6433 25.1138 69.9919 24.5752 70.1311C24.0366 70.2703 23.4647 70.1886 22.9867 69.9041H22.9813ZM28.9333 73.4454C27.9195 72.8363 27.5773 71.5291 28.1627 70.5014L28.1733 70.4867L28.7627 69.4774C28.772 69.4627 28.7787 69.4454 28.7867 69.4294C29.0674 68.9561 29.5249 68.6141 30.0583 68.4787C30.5916 68.3434 31.1569 68.4259 31.6293 68.708C32.6479 69.3204 32.9883 70.6358 32.3947 71.6654L31.7893 72.7054C31.5112 73.1849 31.0526 73.533 30.5159 73.6721C29.9793 73.8111 29.4094 73.7295 28.9333 73.4454ZM36.452 77.2147C35.9155 77.3569 35.3443 77.2751 34.8693 76.9881L34.8507 76.9761C33.8437 76.3706 33.5064 75.0707 34.092 74.0521L34.4667 73.4067L34.7053 72.9961C35.0779 72.3578 35.761 71.965 36.5 71.9641C36.8811 71.9656 37.2548 72.0702 37.5813 72.2667C38.5915 72.8744 38.9284 74.1794 38.3387 75.2001L37.7227 76.2587C37.4428 76.7362 36.9824 77.0808 36.4453 77.2147H36.452ZM53.9533 60.5854C53.3727 60.1321 52.5346 60.2354 52.0813 60.816C51.6281 61.3967 51.7314 62.2348 52.312 62.688L53.368 63.5147C53.8044 63.8506 54.0885 64.3469 54.1571 64.8932C54.2257 65.4396 54.0731 65.9907 53.7333 66.424C53.4109 66.8545 52.9288 67.1369 52.3957 67.2076C51.8626 67.2784 51.3235 67.1315 50.9 66.8L50.024 66.1174C50.0127 66.1072 50.0006 66.0979 49.988 66.0894C49.4058 65.6482 48.5771 65.7576 48.1293 66.3347C47.6815 66.9118 47.7814 67.7417 48.3533 68.196L48.376 68.2134C49.2775 68.9248 49.4387 70.2293 48.7373 71.1387C48.4139 71.5648 47.9333 71.8435 47.4029 71.9126C46.8725 71.9818 46.3365 71.8356 45.9147 71.5067C45.5117 71.195 44.9663 71.1401 44.5093 71.3654C44.0926 71.5688 43.8105 71.9729 43.7633 72.4342C43.7161 72.8955 43.9105 73.3485 44.2773 73.632C45.1443 74.3258 45.325 75.5728 44.6907 76.4841L44.6427 76.5441C44.3213 76.9722 43.8404 77.2521 43.3093 77.3201C42.7739 77.3931 42.2314 77.2491 41.8027 76.9201L40.812 76.1507C41.8651 73.9115 41.0536 71.2386 38.9333 69.9627C37.8475 69.3072 36.5425 69.1196 35.316 69.4427C35.28 69.452 35.2493 69.4707 35.2133 69.48C34.924 68.1983 34.1234 67.0905 32.9973 66.4134C31.9109 65.7595 30.6064 65.5724 29.38 65.8947C29.3453 65.9041 29.3147 65.9214 29.2813 65.9307C28.9998 64.6717 28.2195 63.5809 27.1189 62.9078C26.0183 62.2347 24.6917 62.0371 23.4427 62.3601C23.408 62.3694 23.3773 62.3881 23.3427 62.3974C23.0549 61.1175 22.2581 60.0102 21.136 59.3307C20.0435 58.6782 18.7349 58.4912 17.5034 58.8115C16.2718 59.1318 15.2202 59.9327 14.584 61.0347L14.1507 61.7761L11.0667 60.4987L13.192 41.3334H21.4133C22.4446 41.3348 23.4619 41.095 24.384 40.6334L31.5347 37.0494C33.8006 35.9359 36.402 35.7137 38.824 36.4267L36.7907 37.4467C34.8054 38.4402 33.0996 39.9136 31.828 41.7334L25.688 50.5081C24.4582 52.2312 24.7908 54.6153 26.4453 55.936C28.9727 57.9549 32.6492 57.5893 34.7293 55.112L40.916 47.7134C41.364 47.1686 42.1587 47.067 42.7293 47.4814L56.1533 56.864C56.8155 57.3436 57.2441 58.0807 57.3333 58.8934C57.3904 59.4794 57.1939 60.0618 56.7933 60.4934C56.0051 61.2353 54.788 61.2747 53.9533 60.5854ZM77.3333 60L71.568 60.0094L69.3333 39.8534C69.2999 39.5536 69.3959 39.2538 69.5973 39.0292C69.7987 38.8047 70.0864 38.6767 70.388 38.6774L77.3333 38.6667V60Z" fill="white"/>
</g>
<defs>
<clipPath id="clip0_39_451">
<rect width="80" height="80" fill="white"/>
</clipPath>
</defs>
</svg>
