<svg width="78" height="78" viewBox="0 0 78 78" fill="none" xmlns="http://www.w3.org/2000/svg">
<path d="M20.7455 33.2546C9.4485 33.2546 0.26062 42.4425 0.26062 53.7395C0.26062 65.0365 9.4485 74.2243 20.7455 74.2243C32.0667 74.2243 41.2667 65.0365 41.2667 53.7395C41.2667 42.4425 32.0667 33.2546 20.7455 33.2546ZM20.7455 72.1758C10.5758 72.1758 2.30911 63.9092 2.30911 53.7395C2.30911 43.5819 10.5758 35.3031 20.7455 35.3031C30.9273 35.3031 39.2182 43.5698 39.2182 53.7395C39.2061 63.8971 30.9273 72.1758 20.7455 72.1758Z" fill="white"/>
<path d="M29.897 52.7091C29.3273 52.7091 28.8667 53.1697 28.8667 53.7394C28.8667 54.3091 29.3273 54.7697 29.897 54.7697H33.4849C34.0546 54.7697 34.5152 54.3091 34.5152 53.7394C34.5152 53.1697 34.0546 52.7091 33.4849 52.7091H29.897Z" fill="white"/>
<path d="M11.6303 52.7091H8.04239C7.47269 52.7091 7.01208 53.1697 7.01208 53.7394C7.01208 54.3091 7.47269 54.7697 8.04239 54.7697H11.6303C12.2 54.7697 12.6606 54.3091 12.6606 53.7394C12.6606 53.1697 12.2 52.7091 11.6303 52.7091Z" fill="white"/>
<path d="M22.9515 44.8304H21.8121V43.3152C21.8121 42.7455 21.3515 42.2849 20.7818 42.2849C20.2121 42.2849 19.7515 42.7455 19.7515 43.3152V44.8304H16.6121H16.4909H14.0667C13.497 44.8304 13.0364 45.291 13.0364 45.8607C13.0364 46.4304 13.497 46.891 14.0667 46.891H15.4727V54.0667V61.2425H14.0667C13.497 61.2425 13.0364 61.7031 13.0364 62.2728C13.0364 62.8425 13.497 63.3031 14.0667 63.3031H16.4909H16.6121H19.7515V64.8182C19.7515 65.3879 20.2121 65.8486 20.7818 65.8486C21.3515 65.8486 21.8121 65.3879 21.8121 64.8182V63.3031H22.9515C25.7758 63.3031 28.0667 61.0122 28.0667 58.1879V58.1516C28.0667 56.4789 27.2424 55.0001 25.994 54.0546C27.2424 53.1213 28.0667 51.6425 28.0667 49.9576V49.9334C28.0788 47.1334 25.7758 44.8304 22.9515 44.8304ZM26.0182 58.1516V58.1758C26.0182 59.8607 24.6485 61.2425 22.9515 61.2425H17.5333V55.097H22.9515C24.6485 55.097 26.0182 56.4667 26.0182 58.1516ZM26.0182 49.9698C26.0182 51.6546 24.6485 53.0364 22.9515 53.0364H17.5333V46.891H22.9515C24.6364 46.891 26.0182 48.2607 26.0182 49.9576V49.9698Z" fill="white"/>
<path d="M57.2182 3.36365C45.9213 3.36365 36.7334 12.5515 36.7334 23.8485C36.7334 35.1455 45.9213 44.3333 57.2182 44.3333C68.5395 44.3333 77.7395 35.1455 77.7395 23.8485C77.7395 12.5515 68.5395 3.36365 57.2182 3.36365ZM57.2182 42.2849C47.0607 42.2849 38.7819 34.0182 38.7819 23.8485C38.7819 13.6788 47.0607 5.42425 57.2182 5.42425C67.4001 5.42425 75.691 13.6909 75.691 23.8606C75.691 34.0303 67.4001 42.2849 57.2182 42.2849Z" fill="white"/>
<path d="M69.9575 22.8303H66.3697C65.8 22.8303 65.3394 23.2909 65.3394 23.8606C65.3394 24.4303 65.8 24.8909 66.3697 24.8909H69.9575C70.5272 24.8909 70.9878 24.4303 70.9878 23.8606C70.9878 23.2909 70.5272 22.8303 69.9575 22.8303Z" fill="white"/>
<path d="M48.103 22.8303H44.5152C43.9455 22.8303 43.4849 23.2909 43.4849 23.8606C43.4849 24.4303 43.9455 24.8909 44.5152 24.8909H48.103C48.6727 24.8909 49.1333 24.4303 49.1333 23.8606C49.1333 23.2909 48.6727 22.8303 48.103 22.8303Z" fill="white"/>
<path d="M57.2667 16.6243C59.3152 16.6243 60.9879 18.0909 60.9879 19.8849C60.9879 20.4546 61.4485 20.9152 62.0182 20.9152C62.5879 20.9152 63.0485 20.4546 63.0485 19.8849C63.0485 17.2788 60.9879 15.1091 58.297 14.6606V13.3273C58.297 12.7576 57.8364 12.297 57.2667 12.297C56.697 12.297 56.2364 12.7576 56.2364 13.3273V14.6606C53.5334 15.1091 51.4849 17.2788 51.4849 19.8849C51.4849 22.8182 54.0788 25.2061 57.2667 25.2061C59.3152 25.2061 60.9879 26.6728 60.9879 28.4667C60.9879 30.2728 59.3152 31.7273 57.2667 31.7273C55.2182 31.7273 53.5455 30.2606 53.5455 28.4667C53.5455 27.897 53.0849 27.4364 52.5152 27.4364C51.9455 27.4364 51.4849 27.897 51.4849 28.4667C51.4849 31.0728 53.5455 33.2425 56.2364 33.6909V34.9273C56.2364 35.497 56.697 35.9576 57.2667 35.9576C57.8364 35.9576 58.297 35.497 58.297 34.9273V33.6909C61 33.2425 63.0485 31.0728 63.0485 28.4667C63.0485 25.5334 60.4546 23.1455 57.2667 23.1455C55.2182 23.1455 53.5455 21.6788 53.5455 19.8849C53.5455 18.0909 55.2061 16.6243 57.2667 16.6243Z" fill="white"/>
<path d="M65.3878 61.8849H64.406V50.5759C64.406 48.8062 62.9757 47.3759 61.2181 47.3759H55.4363C53.6788 47.3759 52.2484 48.8183 52.2484 50.5759V61.8849H51.2666C50.1636 61.8849 49.1697 62.491 48.6606 63.4728C48.1515 64.4546 48.2484 65.6304 48.8909 66.5395L55.9575 76.2243C56.5151 76.988 57.3757 77.4243 58.3212 77.4243C59.2666 77.4243 60.1272 76.988 60.6969 76.2122L67.7636 66.5274C68.406 65.6304 68.503 64.4546 67.9939 63.4728C67.4848 62.5031 66.4909 61.8849 65.3878 61.8849ZM66.0909 65.3395L59.0363 75.0243C58.6969 75.4849 57.9575 75.4849 57.6181 75.0243L50.5636 65.3395C50.3697 65.0607 50.3454 64.7213 50.4909 64.4183C50.5636 64.2728 50.7818 63.9456 51.2666 63.9456H53.2787C53.8484 63.9456 54.3091 63.4849 54.3091 62.9152V50.5759C54.3091 49.9456 54.8181 49.4243 55.4484 49.4243H61.2303C61.8606 49.4243 62.3697 49.9334 62.3697 50.5759V62.9152C62.3697 63.4849 62.8303 63.9456 63.4 63.9456H65.4121C65.8848 63.9456 66.1151 64.2728 66.1878 64.4183C66.3091 64.7213 66.2848 65.0607 66.0909 65.3395Z" fill="white"/>
<path d="M13.7031 16.1152H14.6849V27.4243C14.6849 29.194 16.1152 30.6243 17.8728 30.6243H23.6546C25.4122 30.6243 26.8425 29.1819 26.8425 27.4243V16.1152H27.8243C28.9273 16.1152 29.9213 15.5091 30.4303 14.5273C30.9394 13.5455 30.8425 12.3697 30.2 11.4607L23.1334 1.77581C22.5758 1.01217 21.7152 0.575806 20.7576 0.575806C19.8122 0.575806 18.9516 1.01217 18.3819 1.78793L11.3152 11.4728C10.6728 12.3697 10.5758 13.5455 11.0849 14.5273C11.594 15.497 12.6 16.1152 13.7031 16.1152ZM12.9879 12.6607L20.0425 2.97581C20.3819 2.5152 21.1213 2.5152 21.4606 2.97581L28.5152 12.6485C28.7091 12.9273 28.7334 13.2667 28.5879 13.5697C28.5152 13.7152 28.297 14.0425 27.8122 14.0425H25.8C25.2303 14.0425 24.7697 14.5031 24.7697 15.0728V27.4122C24.7697 28.0425 24.2606 28.5637 23.6303 28.5637H17.8485C17.2182 28.5637 16.7091 28.0546 16.7091 27.4122V15.0849C16.7091 14.5152 16.2485 14.0546 15.6788 14.0546H13.6667C13.194 14.0546 12.9637 13.7273 12.8909 13.5819C12.7697 13.2788 12.794 12.9394 12.9879 12.6607Z" fill="white"/>
</svg>
