<svg width="80" height="80" viewBox="0 0 80 80" fill="none" xmlns="http://www.w3.org/2000/svg">
<path d="M74.66 34.6694C72.2366 34.6785 70.1244 36.321 69.5186 38.6673H66.5961C66.2364 31.3681 62.8869 24.5389 57.3354 19.7861V14.6793C57.3354 13.2073 58.5287 12.014 60.0007 12.014H66.8533C67.5244 14.6131 70.0234 16.3077 72.6864 15.9696C75.3493 15.6313 77.3454 13.3658 77.3454 10.6813C77.3454 7.9969 75.3493 5.73135 72.6864 5.3931C70.0235 5.05485 67.5244 6.74957 66.8533 9.34868H60.0007C57.0567 9.34868 54.6701 11.7353 54.6701 14.6793V17.7631C50.6995 15.1421 46.0958 13.6398 41.3434 13.4146V10.4921C43.9425 9.82095 45.6371 7.32201 45.2989 4.65896C44.9608 1.99591 42.6949 0 40.0106 0C37.3263 0 35.0606 1.99605 34.7223 4.65896C34.3841 7.32187 36.0788 9.82095 38.6779 10.4921V13.4146C33.9256 13.6398 29.3219 15.1421 25.3512 17.7631V14.6793C25.3512 11.7353 22.9646 9.34868 20.0205 9.34868H13.168C12.4968 6.74957 9.99789 5.05499 7.33485 5.3931C4.67193 5.73135 2.67589 7.9969 2.67589 10.6813C2.67589 13.3658 4.67193 15.6313 7.33485 15.9696C9.99776 16.3078 12.4968 14.6131 13.168 12.014H20.0205C21.4926 12.014 22.6859 13.2073 22.6859 14.6793V19.7861C17.1343 24.5389 13.7848 31.3681 13.4252 38.6673H10.5027C9.83151 36.0682 7.33257 34.3736 4.66953 34.7118C2.00661 35.05 0.010566 37.3156 0.010566 40C0.010566 42.6843 2.00661 44.95 4.66953 45.2882C7.33244 45.6265 9.83151 43.9318 10.5027 41.3327H13.4252C13.7848 48.6319 17.1343 55.4611 22.6859 60.2139V65.3207C22.6859 66.7927 21.4926 67.986 20.0205 67.986H13.168C12.4968 65.3869 9.99789 63.6923 7.33485 64.0304C4.67193 64.3687 2.67589 66.6342 2.67589 69.3187C2.67589 72.003 4.67193 74.2686 7.33485 74.6069C9.99776 74.9451 12.4968 73.2504 13.168 70.6513H20.0205C22.9646 70.6513 25.3512 68.2647 25.3512 65.3207V62.2369C29.3217 64.8579 33.9255 66.3602 38.6779 66.5854V69.5079C36.0788 70.1791 34.3842 72.678 34.7223 75.341C35.0606 78.0039 37.3261 80 40.0106 80C42.6949 80 44.9606 78.0039 45.2988 75.341C45.6371 72.6781 43.9423 70.1791 41.3432 69.5079V66.5854C46.0955 66.3602 50.6993 64.8579 54.67 62.2369V65.3207C54.67 68.2647 57.0565 70.6513 60.0006 70.6513H66.8532C67.5243 73.2504 70.0232 74.945 72.6863 74.6069C75.3492 74.2686 77.3453 72.0031 77.3453 69.3187C77.3453 66.6343 75.3492 64.3687 72.6863 64.0304C70.0234 63.6922 67.5243 65.3869 66.8532 67.986H60.0006C58.5286 67.986 57.3353 66.7927 57.3353 65.3207V60.2139C62.8869 55.4611 66.2363 48.6319 66.596 41.3327H69.5185C70.2157 44.0081 72.8457 45.7039 75.5706 45.2349C78.2953 44.7658 80.2069 42.2883 79.9695 39.5338C79.7321 36.7791 77.4248 34.6652 74.66 34.6694V34.6694ZM71.9947 8.01602C73.4667 8.01602 74.66 9.20932 74.66 10.6813C74.66 12.1534 73.4667 13.3467 71.9947 13.3467C70.5227 13.3467 69.3294 12.1534 69.3294 10.6813C69.3294 9.20932 70.5227 8.01602 71.9947 8.01602ZM8.02659 13.3467C6.55456 13.3467 5.36127 12.1534 5.36127 10.6813C5.36127 9.20932 6.55456 8.01602 8.02659 8.01602C9.49861 8.01602 10.6919 9.20932 10.6919 10.6813C10.6919 11.3882 10.411 12.0662 9.91122 12.566C9.41141 13.0658 8.73344 13.3467 8.02659 13.3467V13.3467ZM8.02659 71.9841C6.55456 71.9841 5.36127 70.7908 5.36127 69.3188C5.36127 67.8468 6.55456 66.6535 8.02659 66.6535C9.49861 66.6535 10.6919 67.8468 10.6919 69.3188C10.6919 70.7907 9.49861 71.9841 8.02659 71.9841ZM71.9947 66.6533C73.4667 66.6533 74.66 67.8466 74.66 69.3187C74.66 70.7907 73.4667 71.984 71.9947 71.984C70.5227 71.984 69.3294 70.7907 69.3294 69.3187C69.3292 67.8468 70.5227 66.6533 71.9947 66.6533ZM37.3452 5.3507C37.3452 3.87868 38.5385 2.68538 40.0106 2.68538C41.4826 2.68538 42.6759 3.87868 42.6759 5.3507C42.6759 6.82273 41.4826 8.01602 40.0106 8.01602C38.5385 8.01602 37.3452 6.82273 37.3452 5.3507ZM5.36127 42.6653C3.88924 42.6653 2.69595 41.472 2.69595 40C2.69595 38.528 3.88924 37.3347 5.36127 37.3347C6.83329 37.3347 8.02659 38.528 8.02659 40C8.02659 41.472 6.83329 42.6653 5.36127 42.6653ZM42.6759 74.6494C42.6759 76.1215 41.4826 77.3148 40.0106 77.3148C38.5385 77.3148 37.3452 76.1215 37.3452 74.6494C37.3452 73.1774 38.5385 71.9841 40.0106 71.9841C41.4826 71.9841 42.6759 73.1774 42.6759 74.6494ZM40.0106 63.988C26.7623 63.988 16.0225 53.2482 16.0225 40C16.0225 26.7518 26.7623 16.012 40.0106 16.012C53.2588 16.012 63.9986 26.7518 63.9986 40C63.9832 53.2418 53.2524 63.9726 40.0106 63.988ZM74.66 42.6653C73.188 42.6653 71.9947 41.472 71.9947 40C71.9947 38.528 73.188 37.3347 74.66 37.3347C76.132 37.3347 77.3253 38.528 77.3253 40C77.3253 41.472 76.132 42.6653 74.66 42.6653Z" fill="white"/>
<path d="M56.0026 38.6674C55.2666 38.6674 54.67 38.0707 54.67 37.3347V33.3367C54.6561 25.5168 48.5201 19.0776 40.7099 18.6871C32.8997 18.2965 26.1519 24.0913 25.3579 31.8708C25.2843 32.6031 25.8182 33.2565 26.5506 33.3302C27.2829 33.4037 27.9362 32.8698 28.0099 32.1374C28.687 26.013 33.849 21.3698 40.0106 21.3428C46.6316 21.3501 51.9973 26.7157 52.0046 33.3369V37.3348C52.0046 39.5429 53.7946 41.3328 56.0026 41.3328C56.7386 41.3328 57.3353 40.7362 57.3353 40.0002C57.3353 39.2641 56.7386 38.6674 56.0026 38.6674V38.6674Z" fill="white"/>
<path d="M56.0026 43.998C52.3226 43.998 49.3393 41.0147 49.3393 37.3347V33.3367C49.3393 28.1846 45.1628 24.0081 40.0107 24.0081C34.8586 24.0081 30.6821 28.1846 30.6821 33.3367V33.5353C30.6806 34.897 29.5771 36.0005 28.2154 36.002H26.684C25.948 36.002 25.3513 36.5986 25.3513 37.3347C25.3513 38.0707 25.948 38.6673 26.684 38.6673H28.2152C31.0481 38.6637 33.3437 36.3681 33.3474 33.5352V33.3365C33.3474 29.6565 36.3306 26.6732 40.0107 26.6732C43.6908 26.6732 46.674 29.6565 46.674 33.3365V37.3345C46.6791 42.4845 50.8527 46.6581 56.0026 46.6631C56.7386 46.6631 57.3353 46.0665 57.3353 45.3305C57.3353 44.5945 56.7386 43.998 56.0026 43.998V43.998Z" fill="white"/>
<path d="M44.0085 33.3367C44.0089 32.1596 43.4905 31.0423 42.5918 30.2823C41.6928 29.5224 40.5048 29.1972 39.3442 29.3933C37.3901 29.7733 35.9876 31.4968 36.0126 33.4873C35.9658 37.8595 32.389 41.3689 28.0166 41.3327C27.2806 41.3327 26.684 41.9293 26.684 42.6653C26.684 43.4014 27.2806 43.998 28.0166 43.998C33.8603 44.0328 38.6296 39.3309 38.6779 33.4872C38.6505 32.8001 39.109 32.1881 39.776 32.0213C40.1649 31.9518 40.5647 32.0584 40.8672 32.3124C41.1699 32.5663 41.3442 32.9415 41.3431 33.3366C41.3431 40.6849 35.9631 46.6633 29.349 46.6633C28.613 46.6633 28.0164 47.26 28.0164 47.996C28.0164 48.732 28.613 49.3286 29.349 49.3286C37.4319 49.3288 44.0085 42.155 44.0085 33.3367V33.3367Z" fill="white"/>
<path d="M52.0046 47.9959C49.2992 48.0059 46.7465 46.7427 45.1134 44.5856C44.702 43.9781 43.8771 43.8175 43.2677 44.2261C42.6584 44.6347 42.494 45.459 42.8999 46.0702C45.0325 48.9608 48.4126 50.6651 52.0046 50.6612C52.7407 50.6612 53.3373 50.0646 53.3373 49.3286C53.3373 48.5926 52.7407 47.9959 52.0046 47.9959V47.9959Z" fill="white"/>
<path d="M49.6618 53.3668C47.0833 52.7048 44.7638 51.282 43.0052 49.2835C42.202 48.3618 40.8699 48.1145 39.7895 48.6864C37.3899 49.9486 34.7258 50.6253 32.0147 50.6615C31.2787 50.6615 30.6821 51.2581 30.6821 51.9941C30.6821 52.7301 31.2787 53.3268 32.0147 53.3268C35.15 53.2955 38.232 52.5112 41.001 51.04C43.1185 53.4458 45.912 55.1576 49.017 55.9522C49.1224 55.9791 49.2307 55.9925 49.3395 55.9922C50.0118 55.9908 50.5778 55.4888 50.6594 54.8214C50.741 54.154 50.3127 53.5303 49.6606 53.3669H49.6618V53.3668Z" fill="white"/>
<path d="M45.6611 57.3634C44.2084 56.9955 42.8741 56.2614 41.7858 55.2311C40.7146 54.228 39.15 53.9569 37.8037 54.5409C36.3971 55.1546 34.8819 55.4809 33.3473 55.5004C32.6113 55.5004 32.0146 56.097 32.0146 56.833C32.0146 57.5691 32.6113 58.1657 33.3473 58.1657C35.2433 58.1474 37.1163 57.7485 38.8551 56.993C39.2269 56.8318 39.6585 56.9033 39.9585 57.1756C41.3815 58.5185 43.1251 59.4743 45.0226 59.9515C45.7372 60.1282 46.4599 59.692 46.6364 58.9773C46.8131 58.2627 46.377 57.54 45.6622 57.3635H45.6611V57.3634Z" fill="white"/>
</svg>
