<svg width="76" height="76" viewBox="0 0 76 76" fill="none" xmlns="http://www.w3.org/2000/svg">
<path d="M56.75 19.25C56.75 15.5416 55.6503 11.9165 53.5901 8.83307C51.5298 5.74965 48.6014 3.34641 45.1753 1.92727C41.7492 0.508124 37.9792 0.136812 34.3421 0.860284C30.7049 1.58376 27.364 3.36952 24.7418 5.99176C22.1195 8.61399 20.3338 11.9549 19.6103 15.5921C18.8868 19.2292 19.2581 22.9992 20.6773 26.4253C22.0964 29.8514 24.4996 32.7798 27.5831 34.8401C30.6665 36.9003 34.2916 38 38 38C42.9711 37.9944 47.737 36.0171 51.252 32.502C54.7671 28.987 56.7444 24.2211 56.75 19.25ZM38 35.5C34.7861 35.5 31.6443 34.547 28.972 32.7614C26.2997 30.9758 24.2169 28.4379 22.987 25.4686C21.757 22.4993 21.4352 19.232 22.0622 16.0798C22.6893 12.9276 24.2369 10.0321 26.5095 7.75952C28.7821 5.48692 31.6776 3.93926 34.8298 3.31225C37.982 2.68524 41.2493 3.00704 44.2186 4.23697C47.1879 5.46689 49.7258 7.54969 51.5114 10.222C53.297 12.8943 54.25 16.0361 54.25 19.25C54.245 23.5583 52.5314 27.6886 49.485 30.735C46.4386 33.7814 42.3083 35.495 38 35.5Z" fill="white"/>
<path d="M38 5.5C35.2805 5.5 32.6221 6.30642 30.3609 7.81729C28.0997 9.32816 26.3374 11.4756 25.2967 13.9881C24.256 16.5006 23.9837 19.2653 24.5142 21.9325C25.0448 24.5997 26.3543 27.0497 28.2773 28.9727C30.2003 30.8957 32.6503 32.2052 35.3175 32.7358C37.9848 33.2663 40.7494 32.994 43.2619 31.9533C45.7744 30.9126 47.9218 29.1503 49.4327 26.8891C50.9436 24.6279 51.75 21.9695 51.75 19.25C51.7457 15.6046 50.2957 12.1097 47.718 9.53203C45.1403 6.95434 41.6454 5.5043 38 5.5ZM38 30.5C35.775 30.5 33.5999 29.8402 31.7498 28.604C29.8998 27.3679 28.4578 25.6109 27.6064 23.5552C26.7549 21.4995 26.5321 19.2375 26.9662 17.0552C27.4003 14.8729 28.4717 12.8684 30.0451 11.295C31.6184 9.72171 33.623 8.65025 35.8052 8.21617C37.9875 7.78208 40.2495 8.00487 42.3052 8.85636C44.3609 9.70784 46.1179 11.1498 47.354 12.9998C48.5902 14.8499 49.25 17.025 49.25 19.25C49.2464 22.2326 48.0599 25.0919 45.9509 27.2009C43.8419 29.3099 40.9826 30.4964 38 30.5Z" fill="white"/>
<path d="M38 15.5C39.5262 15.5 40.5 16.24 40.5 16.75C40.5 17.0815 40.6317 17.3995 40.8661 17.6339C41.1005 17.8683 41.4185 18 41.75 18C42.0815 18 42.3995 17.8683 42.6339 17.6339C42.8683 17.3995 43 17.0815 43 16.75C43 14.9738 41.4263 13.5363 39.25 13.125V11.75C39.25 11.4185 39.1183 11.1005 38.8839 10.8661C38.6495 10.6317 38.3315 10.5 38 10.5C37.6685 10.5 37.3505 10.6317 37.1161 10.8661C36.8817 11.1005 36.75 11.4185 36.75 11.75V13.125C34.5737 13.5338 33 14.9713 33 16.75C33 18.8525 35.1962 20.5 38 20.5C39.5262 20.5 40.5 21.24 40.5 21.75C40.5 22.26 39.5262 23 38 23C36.4738 23 35.5 22.26 35.5 21.75C35.5 21.4185 35.3683 21.1005 35.1339 20.8661C34.8995 20.6317 34.5815 20.5 34.25 20.5C33.9185 20.5 33.6005 20.6317 33.3661 20.8661C33.1317 21.1005 33 21.4185 33 21.75C33 23.5262 34.5737 24.9637 36.75 25.375V26.75C36.75 27.0815 36.8817 27.3995 37.1161 27.6339C37.3505 27.8683 37.6685 28 38 28C38.3315 28 38.6495 27.8683 38.8839 27.6339C39.1183 27.3995 39.25 27.0815 39.25 26.75V25.375C41.4263 24.9662 43 23.5288 43 21.75C43 19.6475 40.8038 18 38 18C36.4738 18 35.5 17.26 35.5 16.75C35.5 16.24 36.4738 15.5 38 15.5Z" fill="white"/>
<path d="M72.6625 20.95C72.6878 20.7301 72.7003 20.5089 72.7 20.2875C72.6939 19.1417 72.2965 18.0324 71.5735 17.1435C70.8506 16.2545 69.8455 15.6394 68.725 15.4C67.4578 15.1612 66.1471 15.4114 65.057 16.1003C63.9669 16.7891 63.1783 17.8654 62.85 19.1125L57.35 34.9375C57.2685 34.9698 57.1892 35.0074 57.1125 35.05L46.0625 41.525C44.3716 42.5182 42.9691 43.9354 41.9936 45.6366C41.0181 47.3377 40.5032 49.264 40.5 51.225V65.5C40.1685 65.5 39.8505 65.6317 39.6161 65.8661C39.3817 66.1005 39.25 66.4185 39.25 66.75V74.25C39.25 74.5815 39.3817 74.8994 39.6161 75.1339C39.8505 75.3683 40.1685 75.5 40.5 75.5H58C58.3315 75.5 58.6495 75.3683 58.8839 75.1339C59.1183 74.8994 59.25 74.5815 59.25 74.25V66.75C59.25 66.4185 59.1183 66.1005 58.8839 65.8661C58.6495 65.6317 58.3315 65.5 58 65.5V60.25C58.0023 59.722 58.1147 59.2004 58.3299 58.7183C58.5452 58.2362 58.8585 57.8042 59.25 57.45L67.7 49.9375C68.6243 49.1287 69.2859 48.0623 69.6 46.875L75.025 26.5875C75.1408 26.1638 75.1997 25.7267 75.2 25.2875C75.1951 24.4054 74.958 23.5401 74.5126 22.7787C74.0671 22.0172 73.429 21.3865 72.6625 20.95ZM65.2375 19.85C65.3909 19.2035 65.7824 18.6387 66.3338 18.268C66.8851 17.8973 67.556 17.7481 68.2125 17.85C68.7728 17.9673 69.2758 18.2734 69.6376 18.717C69.9993 19.1607 70.1978 19.715 70.2 20.2875V20.3C69.0827 20.3249 68.004 20.7129 67.1267 21.4052C66.2495 22.0975 65.6214 23.0566 65.3375 24.1375L61.85 34.9C61.3242 34.6438 60.757 34.483 60.175 34.425L65.2375 19.85ZM56.75 73H41.75V68H56.75V73ZM72.6125 25.9375L67.175 46.2375C66.9869 46.9429 66.5957 47.5775 66.05 48.0625L57.5875 55.575C56.9327 56.1655 56.4087 56.8865 56.0491 57.6916C55.6896 58.4968 55.5026 59.3682 55.5 60.25V65.5H43V51.225C43.0062 49.6999 43.408 48.2025 44.166 46.8792C44.9241 45.5558 46.0126 44.4518 47.325 43.675L58.3625 37.2125C58.6471 37.0467 58.9616 36.9387 59.2881 36.8949C59.6145 36.851 59.9464 36.8721 60.2647 36.9569C60.5829 37.0416 60.8813 37.1885 61.1426 37.389C61.404 37.5894 61.6231 37.8396 61.7875 38.125C62.1122 38.7026 62.2017 39.3831 62.0375 40.025C61.9507 40.3419 61.8022 40.6387 61.6006 40.8982C61.399 41.1577 61.1482 41.375 60.8625 41.5375L53.7 45.675C53.4279 45.8479 53.2332 46.1193 53.1565 46.4325C53.0798 46.7456 53.127 47.0763 53.2884 47.3554C53.4497 47.6346 53.7127 47.8405 54.0223 47.9304C54.332 48.0202 54.6643 47.9869 54.95 47.8375L62.1125 43.7C62.685 43.3752 63.1867 42.9391 63.5882 42.4174C63.9896 41.8958 64.2826 41.2991 64.45 40.6625C64.7903 39.3835 64.6105 38.0218 63.95 36.875L63.875 36.7625L67.7375 24.85C67.8909 24.2035 68.2824 23.6387 68.8338 23.268C69.3851 22.8973 70.056 22.7481 70.7125 22.85C71.2728 22.9673 71.7758 23.2734 72.1376 23.717C72.4993 24.1607 72.6978 24.715 72.7 25.2875C72.7042 25.5073 72.6747 25.7266 72.6125 25.9375Z" fill="white"/>
<path d="M35.5 65.5V51.225C35.4968 49.264 34.982 47.3377 34.0065 45.6366C33.0309 43.9354 31.6284 42.5182 29.9375 41.525L18.8875 35.0375C18.8125 35 18.725 34.975 18.65 34.9375L13.1875 19.2C12.8687 17.9317 12.0784 16.8326 10.9776 16.1266C9.87676 15.4206 8.54824 15.1608 7.26255 15.4C6.14445 15.6421 5.1424 16.2583 4.42194 17.147C3.70148 18.0356 3.30572 19.1435 3.30005 20.2875C3.29972 20.5088 3.31225 20.73 3.33755 20.95C2.57101 21.3865 1.93293 22.0172 1.48749 22.7786C1.04205 23.54 0.804954 24.4053 0.800049 25.2875C0.802477 25.7257 0.857026 26.1621 0.962549 26.5875L6.40005 46.8625C6.71078 48.0548 7.37276 49.1261 8.30005 49.9375L16.7375 57.45C17.133 57.8017 17.4498 58.2329 17.6673 58.7154C17.8848 59.1978 17.9982 59.7207 18 60.25V65.5C17.6685 65.5 17.3506 65.6317 17.1162 65.8661C16.8817 66.1005 16.75 66.4184 16.75 66.75V74.25C16.75 74.5815 16.8817 74.8994 17.1162 75.1339C17.3506 75.3683 17.6685 75.5 18 75.5H35.5C35.8316 75.5 36.1495 75.3683 36.3839 75.1339C36.6184 74.8994 36.75 74.5815 36.75 74.25V66.75C36.75 66.4184 36.6184 66.1005 36.3839 65.8661C36.1495 65.6317 35.8316 65.5 35.5 65.5ZM5.80005 20.2875C5.80159 19.7168 5.99835 19.1638 6.35762 18.7204C6.7169 18.2769 7.21708 17.9698 7.77505 17.85C8.44979 17.7508 9.13703 17.9111 9.69834 18.2984C10.2596 18.6858 10.6533 19.2714 10.8 19.9375L15.825 34.425C15.5767 34.4431 15.3301 34.4808 15.0875 34.5375C14.7637 34.6266 14.4496 34.748 14.15 34.9L10.6875 24.2C10.4058 23.109 9.77635 22.1395 8.89452 21.4381C8.01269 20.7367 6.92643 20.3416 5.80005 20.3125V20.2875ZM18.4 55.575L9.95005 48.0625C9.40136 47.5749 9.00982 46.9354 8.82505 46.225L3.38755 25.9375C3.32535 25.7265 3.29584 25.5073 3.30005 25.2875C3.30159 24.7168 3.49835 24.1638 3.85762 23.7204C4.2169 23.2769 4.71708 22.9698 5.27505 22.85C5.94455 22.7518 6.62643 22.9096 7.18476 23.2919C7.7431 23.6742 8.13686 24.2528 8.28755 24.9125L12.125 36.7625C12.1045 36.8027 12.0793 36.8405 12.05 36.875C11.3892 38.0238 11.2116 39.388 11.5562 40.6678C11.9007 41.9476 12.7393 43.0382 13.8875 43.7L21.05 47.8375C21.3357 47.9869 21.6681 48.0202 21.9777 47.9304C22.2874 47.8405 22.5503 47.6345 22.7117 47.3554C22.873 47.0763 22.9203 46.7456 22.8436 46.4325C22.7669 46.1193 22.5721 45.8479 22.3 45.675L15.1375 41.5375C14.8527 41.3741 14.6029 41.1563 14.4023 40.8964C14.2016 40.6365 14.0542 40.3397 13.9683 40.0228C13.8824 39.7059 13.8597 39.3752 13.9016 39.0496C13.9436 38.724 14.0492 38.4098 14.2125 38.125C14.5466 37.5543 15.0914 37.1375 15.7296 36.9645C16.3679 36.7915 17.0485 36.8761 17.625 37.2L28.6751 43.675C29.9875 44.4518 31.0759 45.5558 31.834 46.8792C32.5921 48.2025 32.9939 49.6999 33 51.225V65.5H20.5V60.25C20.4979 59.3669 20.3098 58.4943 19.948 57.6888C19.5862 56.8833 19.0587 56.1631 18.4 55.575ZM34.25 73H19.25V68H34.25V73Z" fill="white"/>
</svg>
